<svg width="512" height="512" viewBox="0 0 512 512" fill="none" xmlns="http://www.w3.org/2000/svg">
<g clip-path="url(#clip0_459_710)">
<rect width="512" height="512" rx="200" fill="#F39B68"/>
<path d="M423.216 360.513L366.664 324.356M208.152 444.824L225.064 379.866M409.491 129.922L357.627 172.533M185.944 71.7188L210.442 134.211M61.5098 266.339L128.514 262.35M210.442 134.211L357.627 172.533M210.442 134.211L128.514 262.35M357.627 172.533L366.664 324.356M366.664 324.356L225.064 379.866M225.064 379.866L128.514 262.35" stroke="white" stroke-width="14" stroke-linejoin="round"/>
<path d="M419.786 302.866L423.217 360.513L208.153 444.824L61.5104 266.339L185.945 71.7188L241.831 86.2696" stroke="white" stroke-width="40" stroke-linecap="round" stroke-linejoin="round"/>
<path d="M283.746 97.1826L297.718 100.82L409.491 129.922L416.354 245.218L417.212 259.63" stroke="white" stroke-width="14" stroke-linecap="round" stroke-linejoin="round"/>
<path d="M203.407 231.795L203.411 231.782C204.055 229.718 205.422 228.074 208.371 226.864C213.47 224.773 216.638 225.517 219.007 227.199L219.013 227.203C221.932 229.27 225.409 234.052 227.796 242.975C228.537 245.973 228.488 249.249 227.622 253.886C227.009 257.017 226.018 260.36 224.8 264.468C224.554 265.298 224.299 266.159 224.035 267.056C223.694 268.172 223.308 269.398 222.912 270.652L222.897 270.7L222.883 270.748C218.863 284.444 214.191 302.169 215.461 326.691L215.463 326.731L215.466 326.77C215.682 329.959 217.373 332.731 219.872 334.417L219.965 334.48L220.06 334.538C222.715 336.161 226.002 336.5 229.009 335.267L273.478 317.026C278.402 315.005 280.929 309.328 278.833 304.22C276.792 299.242 271.005 296.822 266.028 298.864L235.054 311.57C235.818 297.36 238.773 286.18 241.729 276.382C241.919 275.759 242.098 275.124 242.26 274.549L242.267 274.525C242.437 273.921 242.59 273.381 242.747 272.867L242.748 272.862C244.287 267.805 245.873 262.565 246.847 257.611C248.129 251.364 248.538 244.837 246.67 237.938C243.707 226.729 238.505 217.011 230.348 211.204L230.345 211.202C221.628 205.008 211.135 204.513 200.922 208.703C193.435 211.774 187.287 217.476 184.675 226.011C182.123 234.207 183.366 243.405 187.309 253.017C189.404 258.126 195.19 260.393 200.114 258.373C205.17 256.299 207.544 250.623 205.47 245.567C202.552 238.456 202.692 234.061 203.407 231.795Z" fill="white"/>
<path fill-rule="evenodd" clip-rule="evenodd" d="M318.259 229.613C315.475 222.826 312.355 216.325 309.016 210.419L308.989 210.353L308.84 210.088C305.287 203.745 301.333 198.087 297.077 193.499C289.057 184.797 277.208 177.409 263.835 182.895C250.459 188.382 247.213 201.966 247.614 213.794C248.009 226.015 252.128 240.315 257.895 254.375C261.174 262.368 264.894 270.125 269.053 276.9L269.089 276.989L269.311 277.346C272.374 282.265 275.649 286.732 279.053 290.463L279.061 290.472L279.07 290.481C287.09 299.186 298.942 306.58 312.32 301.092C325.693 295.606 328.94 282.027 328.54 270.2C328.178 258.047 324.022 243.663 318.259 229.613ZM288.607 271.05C290.248 273.394 291.906 275.45 293.544 277.235L293.548 277.24C299.619 283.876 303.087 283.663 304.87 282.931C306.653 282.2 309.271 279.916 308.934 270.928L308.933 270.921L308.933 270.914C308.646 262.611 305.872 251.691 301.1 239.559L288.607 271.05ZM276.615 248.27L289.452 215.816C287.173 212.262 284.893 209.256 282.662 206.852L282.645 206.834L282.628 206.815C276.519 200.098 273.055 200.33 271.284 201.057C269.514 201.783 266.885 204.05 267.252 213.123L267.253 213.145L267.254 213.168C267.531 221.945 270.669 233.792 276.057 246.925C276.242 247.376 276.428 247.824 276.615 248.27Z" fill="white"/>
</g>
<defs>
<clipPath id="clip0_459_710">
<rect width="512" height="512" rx="200" fill="white"/>
</clipPath>
</defs>
</svg>
