<svg width="512" height="512" viewBox="0 0 512 512" fill="none" xmlns="http://www.w3.org/2000/svg">
<path d="M423.216 360.513L366.664 324.356M208.152 444.823L225.064 379.866M409.491 129.922L357.627 172.533M185.944 71.7186L210.442 134.211M61.5098 266.339L128.514 262.35M210.442 134.211L357.627 172.533M210.442 134.211L128.514 262.35M357.627 172.533L366.664 324.356M366.664 324.356L225.064 379.866M225.064 379.866L128.514 262.35" stroke="white" stroke-width="14" stroke-linejoin="round"/>
<path d="M419.785 302.865L423.216 360.513L208.152 444.823L61.5095 266.339L185.944 71.7186L241.83 86.2694" stroke="white" stroke-width="40" stroke-linecap="round" stroke-linejoin="round"/>
<path d="M283.746 97.1825L297.718 100.82L409.491 129.922L416.354 245.217L417.212 259.629" stroke="white" stroke-width="14" stroke-linecap="round" stroke-linejoin="round"/>
<path d="M203.406 231.795L203.41 231.782C204.054 229.718 205.421 228.074 208.37 226.864C213.469 224.773 216.637 225.517 219.006 227.2L219.012 227.204C221.931 229.27 225.408 234.052 227.795 242.975C228.536 245.973 228.487 249.249 227.621 253.887C227.008 257.018 226.017 260.361 224.799 264.468C224.553 265.298 224.298 266.159 224.034 267.056C223.693 268.172 223.307 269.398 222.911 270.652L222.896 270.7L222.882 270.748C218.862 284.445 214.19 302.169 215.46 326.692L215.462 326.731L215.465 326.77C215.681 329.959 217.372 332.731 219.871 334.417L219.964 334.48L220.059 334.538C222.714 336.161 226.001 336.501 229.008 335.267L273.477 317.026C278.401 315.006 280.928 309.329 278.833 304.22C276.791 299.243 271.004 296.823 266.027 298.864L235.053 311.57C235.817 297.36 238.772 286.18 241.728 276.383C241.918 275.759 242.097 275.124 242.259 274.549L242.266 274.525C242.436 273.922 242.589 273.381 242.746 272.868L242.747 272.862C244.286 267.805 245.872 262.565 246.846 257.611C248.128 251.364 248.537 244.838 246.669 237.939C243.706 226.729 238.504 217.011 230.347 211.204L230.344 211.202C221.627 205.008 211.134 204.513 200.921 208.703C193.434 211.774 187.286 217.476 184.674 226.011C182.122 234.207 183.365 243.405 187.308 253.017C189.403 258.126 195.189 260.393 200.113 258.373C205.169 256.299 207.543 250.623 205.469 245.567C202.552 238.456 202.691 234.061 203.406 231.795Z" fill="white"/>
<path fill-rule="evenodd" clip-rule="evenodd" d="M318.258 229.613C315.474 222.826 312.354 216.326 309.015 210.42L308.988 210.353L308.839 210.088C305.286 203.745 301.332 198.087 297.076 193.499C289.056 184.797 277.207 177.41 263.834 182.896C250.458 188.383 247.212 201.966 247.613 213.794C248.008 226.015 252.127 240.315 257.894 254.375C261.173 262.368 264.893 270.125 269.052 276.9L269.088 276.989L269.31 277.346C272.373 282.265 275.648 286.732 279.052 290.463L279.06 290.472L279.069 290.481C287.089 299.186 298.941 306.58 312.319 301.092C325.692 295.607 328.939 282.027 328.539 270.2C328.177 258.047 324.021 243.663 318.258 229.613ZM288.606 271.05C290.247 273.395 291.905 275.45 293.543 277.235L293.547 277.24C299.618 283.876 303.086 283.663 304.869 282.931C306.652 282.2 309.27 279.917 308.933 270.929L308.932 270.921L308.932 270.914C308.645 262.612 305.871 251.691 301.1 239.559L288.606 271.05ZM276.614 248.27L289.451 215.816C287.172 212.262 284.892 209.257 282.661 206.852L282.644 206.834L282.627 206.816C276.518 200.098 273.054 200.331 271.283 201.057C269.513 201.783 266.884 204.051 267.251 213.123L267.252 213.145L267.253 213.168C267.53 221.945 270.668 233.792 276.056 246.925C276.241 247.376 276.427 247.825 276.614 248.27Z" fill="white"/>
</svg>
